<mxfile host="65bd71144e">
    <diagram id="0ddD8CBCVS0P4NU-PtTh" name="Page-1">
        <mxGraphModel dx="1088" dy="779" grid="1" gridSize="10" guides="1" tooltips="1" connect="1" arrows="1" fold="1" page="1" pageScale="1" pageWidth="827" pageHeight="1169" background="#1A1A1A" math="0" shadow="0">
            <root>
                <mxCell id="0"/>
                <mxCell id="1" parent="0"/>
                <mxCell id="4" value="Lab Server" style="rounded=1;whiteSpace=wrap;html=1;horizontal=1;verticalAlign=top;fontSize=18;arcSize=0;strokeColor=#238fc8;strokeWidth=3;" parent="1" vertex="1">
                    <mxGeometry x="120" y="360" width="380" height="140" as="geometry"/>
                </mxCell>
                <mxCell id="2" value="Platform" style="rounded=1;whiteSpace=wrap;html=1;fontSize=15;" parent="1" vertex="1">
                    <mxGeometry x="330" y="420" width="120" height="60" as="geometry"/>
                </mxCell>
                <mxCell id="3" value="Self-Managed&lt;br style=&quot;font-size: 15px;&quot;&gt;Broker" style="rounded=1;whiteSpace=wrap;html=1;fontSize=15;" parent="1" vertex="1">
                    <mxGeometry x="170" y="420" width="120" height="60" as="geometry"/>
                </mxCell>
                <mxCell id="5" value="device 1" style="rounded=0;whiteSpace=wrap;html=1;fontSize=18;strokeColor=#238fc8;strokeWidth=3;" parent="1" vertex="1">
                    <mxGeometry x="630" y="330" width="120" height="60" as="geometry"/>
                </mxCell>
                <mxCell id="6" value="device 2" style="rounded=0;whiteSpace=wrap;html=1;fontSize=18;strokeColor=#238fc8;strokeWidth=3;" parent="1" vertex="1">
                    <mxGeometry x="630" y="400" width="120" height="60" as="geometry"/>
                </mxCell>
                <mxCell id="7" value="device 3" style="rounded=0;whiteSpace=wrap;html=1;fontSize=18;strokeColor=#238fc8;strokeWidth=3;" parent="1" vertex="1">
                    <mxGeometry x="630" y="470" width="120" height="60" as="geometry"/>
                </mxCell>
                <mxCell id="8" value="" style="endArrow=classic;startArrow=classic;html=1;fontSize=15;entryX=0;entryY=0.5;entryDx=0;entryDy=0;exitX=1;exitY=0.5;exitDx=0;exitDy=0;strokeWidth=3;" parent="1" source="4" target="5" edge="1">
                    <mxGeometry width="50" height="50" relative="1" as="geometry">
                        <mxPoint x="430" y="430" as="sourcePoint"/>
                        <mxPoint x="480" y="380" as="targetPoint"/>
                    </mxGeometry>
                </mxCell>
                <mxCell id="9" value="" style="endArrow=classic;startArrow=classic;html=1;fontSize=15;entryX=0;entryY=0.5;entryDx=0;entryDy=0;exitX=1;exitY=0.5;exitDx=0;exitDy=0;strokeWidth=3;" parent="1" source="4" target="6" edge="1">
                    <mxGeometry width="50" height="50" relative="1" as="geometry">
                        <mxPoint x="530" y="570" as="sourcePoint"/>
                        <mxPoint x="660" y="500" as="targetPoint"/>
                    </mxGeometry>
                </mxCell>
                <mxCell id="10" value="" style="endArrow=classic;startArrow=classic;html=1;fontSize=15;entryX=0;entryY=0.5;entryDx=0;entryDy=0;strokeWidth=3;" parent="1" target="7" edge="1">
                    <mxGeometry width="50" height="50" relative="1" as="geometry">
                        <mxPoint x="500" y="430" as="sourcePoint"/>
                        <mxPoint x="627" y="509" as="targetPoint"/>
                    </mxGeometry>
                </mxCell>
                <mxCell id="11" value="Network" style="ellipse;shape=cloud;whiteSpace=wrap;html=1;fontSize=15;strokeColor=#39B0FF;strokeWidth=3;" parent="1" vertex="1">
                    <mxGeometry x="190" y="140" width="220" height="160" as="geometry"/>
                </mxCell>
                <mxCell id="12" value="" style="endArrow=classic;startArrow=classic;html=1;fontSize=15;entryX=0.55;entryY=0.95;entryDx=0;entryDy=0;entryPerimeter=0;strokeWidth=3;" parent="1" source="4" target="11" edge="1">
                    <mxGeometry width="50" height="50" relative="1" as="geometry">
                        <mxPoint x="430" y="430" as="sourcePoint"/>
                        <mxPoint x="480" y="380" as="targetPoint"/>
                    </mxGeometry>
                </mxCell>
            </root>
        </mxGraphModel>
    </diagram>
</mxfile>